<?xml version="1.0" encoding="UTF-8" standalone="no"?>
<!DOCTYPE svg PUBLIC "-//W3C//DTD SVG 1.1//EN" "http://www.w3.org/Graphics/SVG/1.1/DTD/svg11.dtd">
<svg width="100%" height="100%" viewBox="0 0 1212 1874" version="1.1" xmlns="http://www.w3.org/2000/svg" xmlns:xlink="http://www.w3.org/1999/xlink" xml:space="preserve" xmlns:serif="http://www.serif.com/" style="fill-rule:evenodd;clip-rule:evenodd;stroke-linejoin:round;stroke-miterlimit:2;">
    <g transform="matrix(1,0,0,1,-760.018,-127.766)">
        <path d="M1175.61,1581.07C1167.01,1579.84 1152.52,1568 1148.84,1571.22C1140.25,1578.72 1139.31,1586.37 1139.84,1601.33C1140.47,1618.89 1121.64,1636.38 1108.84,1642.8C1103.77,1645.35 1083.21,1628.7 1080.18,1625.65C1078.11,1623.56 1076.15,1621.37 1074.12,1619.25C1073.25,1618.34 1065.32,1609.43 1066.2,1612.44C1068.71,1620.99 1071.37,1641.8 1068.89,1652.27C1062.67,1678.53 1050.92,1684.65 1028.21,1707.69C1005.31,1730.93 955.361,1776.04 976.324,1807.79C1000.92,1845.05 1032.4,1872.96 1064.91,1893.42C1155.64,1950.53 1265.08,2018 1376.68,1998.03C1456.04,1983.83 1516.9,1960.55 1583.24,1921.22C1626.35,1895.66 1769.67,1829.6 1790.3,1817.62C1838.72,1789.48 1953.36,1716.12 1955.73,1701.05C1959.16,1679.15 1933.68,1652.29 1920.18,1637.61C1897.87,1613.33 1861.43,1604.63 1830.71,1595.75C1791.27,1584.34 1751.47,1570.59 1717.89,1546.16C1706.89,1538.16 1705.42,1518.59 1696.79,1507.82C1695.85,1506.65 1627.21,1456.67 1622.08,1454.59C1610.78,1450.01 1601.98,1509.56 1597.66,1518.11C1579.53,1553.98 1551.74,1585.99 1524.04,1614.74C1488.29,1651.85 1420.98,1711.68 1366.44,1715.2C1342.63,1716.74 1321.92,1698.7 1302.89,1686.93C1250.35,1654.39 1214.78,1629.15 1175.61,1581.07Z" style="fill:rgb(58,116,146);"/>
        <path d="M1640.96,1467.25L1637.74,1468.16C1636.48,1530.78 1592.15,1582.92 1551.34,1628.6C1514.26,1670.12 1504.05,1681.61 1457.56,1715.4C1425,1739.07 1631.66,1687.72 1456.62,1800.32C1434.17,1814.76 1596.84,1776.43 1594.18,1853.65C1593,1887.93 1580.74,1912.22 1566.68,1930.76C1572.17,1927.69 1577.68,1924.51 1583.24,1921.22C1626.35,1895.66 1769.67,1829.6 1790.3,1817.62C1838.72,1789.48 1953.36,1716.12 1955.73,1701.05C1959.16,1679.15 1933.68,1652.29 1920.18,1637.61C1897.87,1613.33 1861.43,1604.63 1830.71,1595.75C1791.27,1584.34 1751.47,1570.59 1717.89,1546.16C1706.89,1538.16 1705.42,1518.59 1696.79,1507.82C1696.13,1507.01 1662.97,1482.75 1640.96,1467.25Z" style="fill:rgb(46,86,121);"/>
        <path d="M1226.73,1197.78C1236.92,1290.28 1216.19,1524.21 1256.13,1609.71C1268.92,1637.1 1285.1,1666.09 1298.58,1683.03C1305.2,1691.34 1341.64,1707.2 1349.3,1709.26C1375.82,1716.41 1388.12,1706.25 1411.16,1695.72C1422.8,1690.4 1487.25,1642.28 1499.04,1632.77C1510.89,1623.21 1557.78,1572.13 1569.94,1556.65C1584.9,1537.62 1625.23,1483.8 1614.91,1482.49C1590.76,1479.42 1555.57,1239.06 1568.72,1194.02C1571.48,1184.54 1243.81,1223.45 1226.73,1197.78Z" style="fill:rgb(246,195,148);"/>
        <path d="M1289.48,1337.28C1359.51,1425.95 1413.6,1412.25 1447.72,1418.38C1471.9,1422.73 1498.52,1424.75 1518.51,1440.57C1539.2,1456.95 1552.23,1490.48 1554.3,1515.92C1556.86,1547.4 1548.38,1572.24 1540.02,1591.73C1555.61,1595 1621.06,1489.95 1616.58,1486.13C1585.15,1459.36 1557.26,1176.94 1587.01,1159.37C1587.27,1159.22 1318.42,1245.29 1289.48,1337.28Z" style="fill:rgb(236,146,94);"/>
        <path d="M1282.87,1497.78C1322.18,1497.8 1363.5,1492.87 1398.79,1474.07C1415.25,1465.31 1429.61,1452.95 1445.7,1443.54C1450.86,1440.53 1458.29,1435.38 1464.59,1437.25C1473.34,1439.85 1476.4,1451.56 1476.35,1459.34C1476.24,1478.48 1465.72,1494.33 1449.33,1503.42C1406.11,1527.42 1325.8,1525.53 1282.87,1497.78Z" style="fill:rgb(236,146,94);"/>
        <path d="M1140.99,1059.48L1149.12,1253.25C1153.17,1330.36 1141.01,1405.55 1109.69,1476.26L1108.28,1479.46L1109.49,1482.74C1110.76,1486.18 1111.71,1489.48 1113.12,1492.85C1140.09,1557.27 1191.58,1607.33 1244.04,1651.88C1278.3,1680.98 1319.23,1711.72 1364.05,1722.13L1366,1722.59L1367.95,1722.13C1374.6,1720.59 1381.17,1718.6 1387.64,1716.24C1424.77,1702.69 1458.78,1676.66 1487.96,1651.88C1543.17,1605 1596.87,1552.12 1622.51,1482.74L1623.72,1479.46L1622.31,1476.26C1591.03,1405.63 1578.86,1330.54 1582.86,1253.57C1582.86,1253.56 1604.94,1062.56 1604.94,1062.56L1140.99,1059.48ZM1166.34,1252.44L1158.96,1076.84C1158.96,1076.84 1585.62,1079.67 1585.62,1079.67C1585.62,1079.67 1565.68,1252.12 1565.68,1252.12L1565.67,1252.39C1561.54,1331.01 1573.76,1407.73 1605.12,1479.99C1580.05,1544.98 1528.92,1594.49 1476.8,1638.75C1449.11,1662.26 1416.97,1687.19 1381.73,1700.05C1376.55,1701.94 1371.31,1703.57 1366,1704.88C1324.56,1694.63 1286.96,1665.72 1255.2,1638.75C1204.77,1595.93 1154.94,1548.11 1129.02,1486.19C1128.17,1484.16 1127.51,1482.15 1126.82,1480.12C1158.22,1407.83 1170.46,1331.09 1166.34,1252.44L1166.34,1252.44Z"/>
        <path d="M1614.13,1467.42C1616.86,1465.2 1619.63,1462.93 1622.46,1460.77C1636.49,1471.76 1682.1,1509.12 1700.17,1523.42C1682.81,1562.56 1662.26,1591.9 1633.87,1624.64C1597.61,1666.44 1558.13,1705.24 1515.7,1740.79C1471.2,1778.08 1420.39,1819.36 1366,1842.31C1311.61,1819.36 1260.8,1778.08 1216.3,1740.79C1173.87,1705.24 1134.39,1666.44 1098.13,1624.64C1069.74,1591.9 1049.19,1562.56 1031.83,1523.42C1049.9,1509.12 1095.51,1471.76 1109.54,1460.77C1112.37,1462.93 1115.14,1465.2 1117.87,1467.42L1124.56,1472.86L1135.43,1459.49L1128.75,1454.05C1124.12,1450.29 1119.39,1446.44 1114.49,1443.03L1110.18,1440.03L1105.54,1442.49C1102.38,1444.17 1029.59,1503.63 1016.07,1513.86L1010.71,1517.91L1013.34,1524.1C1032.01,1568.09 1054.02,1600.07 1085.11,1635.93C1121.97,1678.42 1162.1,1717.86 1205.23,1754C1251.93,1793.13 1305.53,1836.31 1362.75,1859.62L1366,1860.95L1369.25,1859.62C1426.47,1836.31 1480.07,1793.13 1526.77,1754C1569.9,1717.86 1610.03,1678.42 1646.89,1635.93C1677.99,1600.07 1699.99,1568.09 1718.66,1524.1L1721.29,1517.91L1715.93,1513.86C1702.41,1503.63 1629.62,1444.17 1626.47,1442.49L1621.82,1440.03L1617.51,1443.03C1612.61,1446.44 1607.88,1450.29 1603.25,1454.05L1596.57,1459.49L1607.44,1472.86L1614.13,1467.42Z"/>
        <path d="M1704.94,1542.68C1723.54,1559.59 1744.13,1574.09 1767.79,1583C1795.19,1593.32 1825.98,1599.71 1854.76,1609.75C1881.89,1619.23 1907.24,1631.96 1925.46,1655.51C1935.82,1668.9 1943.01,1683.83 1948.26,1699.84C1949.74,1704.36 1954.61,1706.82 1959.13,1705.34C1963.65,1703.86 1966.12,1698.99 1964.63,1694.47C1958.78,1676.59 1950.67,1659.93 1939.1,1644.97C1918.76,1618.68 1890.72,1604.05 1860.44,1593.48C1831.79,1583.48 1801.14,1577.14 1773.87,1566.87C1752.25,1558.73 1733.52,1545.38 1716.53,1529.93C1713.01,1526.73 1707.56,1526.99 1704.36,1530.51C1701.16,1534.02 1701.42,1539.48 1704.94,1542.68Z"/>
        <g transform="matrix(1,0,0,1,0,-1)">
            <path d="M1448.94,1682.1C1467.41,1652.62 1481.19,1622.42 1493.26,1589.83C1494.91,1585.37 1492.63,1580.4 1488.17,1578.75C1483.71,1577.1 1478.75,1579.38 1477.1,1583.84C1465.44,1615.31 1452.17,1644.49 1434.34,1672.95C1431.81,1676.98 1433.03,1682.31 1437.06,1684.83C1441.1,1687.36 1446.42,1686.13 1448.94,1682.1Z"/>
        </g>
        <path d="M1441.65,1494.02C1418.42,1506.47 1392.18,1515.89 1366,1515.89C1339.82,1515.89 1313.58,1506.47 1290.35,1494.02C1286.16,1491.77 1280.93,1493.35 1278.68,1497.55C1276.44,1501.74 1278.02,1506.96 1282.21,1509.21C1307.91,1522.99 1337.03,1533.13 1366,1533.13C1394.97,1533.13 1424.09,1522.99 1449.79,1509.21C1453.98,1506.96 1455.56,1501.74 1453.32,1497.55C1451.07,1493.35 1445.84,1491.77 1441.65,1494.02Z"/>
        <g transform="matrix(-1,0,0,1,2732,0)">
            <path d="M1716.53,1529.93C1733.52,1545.38 1752.25,1558.73 1773.87,1566.87C1801.14,1577.14 1831.79,1583.48 1860.44,1593.48C1890.72,1604.05 1918.76,1618.68 1939.1,1644.97C1950.67,1659.93 1958.78,1676.59 1964.63,1694.47C1966.12,1698.99 1963.65,1703.86 1959.13,1705.34C1954.61,1706.82 1949.74,1704.36 1948.26,1699.84C1943.01,1683.83 1935.82,1668.9 1925.46,1655.51C1907.24,1631.96 1881.89,1619.23 1854.76,1609.75C1825.98,1599.71 1795.19,1593.32 1767.79,1583C1744.13,1574.09 1723.54,1559.59 1704.94,1542.68C1701.42,1539.48 1701.16,1534.02 1704.36,1530.51C1707.56,1526.99 1713.01,1526.73 1716.53,1529.93Z"/>
        </g>
        <g transform="matrix(-1,0,0,1,2732,-1)">
            <path d="M1434.34,1672.95C1452.17,1644.49 1465.44,1615.31 1477.1,1583.84C1478.75,1579.38 1483.71,1577.1 1488.17,1578.75C1492.63,1580.4 1494.91,1585.37 1493.26,1589.83C1481.19,1622.42 1467.41,1652.62 1448.94,1682.1C1446.42,1686.13 1441.1,1687.36 1437.06,1684.83C1433.03,1682.31 1431.81,1676.98 1434.34,1672.95Z"/>
        </g>
        <g transform="matrix(1,0,0,1,-180.304,71.9964)">
            <g transform="matrix(1,0,0,1,-155.597,-64.8099)">
                <path d="M1521.85,892.563C1525.69,891.452 1529.75,890.856 1533.95,890.856C1557.97,890.856 1577.46,910.353 1577.46,934.368C1577.46,958.382 1557.97,977.879 1533.95,977.879C1509.94,977.879 1490.44,958.382 1490.44,934.368C1490.44,930.17 1491.04,926.11 1492.15,922.27C1495.56,930.542 1503.7,936.37 1513.2,936.37C1525.76,936.37 1535.95,926.173 1535.95,913.613C1535.95,904.118 1530.12,895.973 1521.85,892.563Z"/>
            </g>
        </g>
        <path d="M936.855,961.156C930.887,933.757 927.672,838.782 962.281,826.874C982.965,819.758 1010.45,882.959 1019,890.856C1020.02,891.799 1021.41,630.112 1042.2,572.077C1042.51,571.224 1223.4,469.097 1239.1,539.294C1252.22,597.97 1260.52,796.413 1238.16,857.103C1224.92,893.054 1126,879.301 1109.18,909.428C1104.9,917.077 1108.05,955.948 1110.17,963.963C1125.15,1020.74 1175.09,989.555 1186.99,1024C1204.82,1075.6 1198.56,1288.46 1198.24,1288.48C1176.09,1289.45 1037.7,1100.06 1046.36,1066.95C1050.21,1052.24 1012.33,1060.84 1003.88,1054.38C971.891,1029.93 950.44,1000.16 936.855,961.156Z" style="fill:white;"/>
        <path d="M1213.88,882.242C1219.79,834.369 1206.63,798.226 1155.41,827.76C1144.31,834.161 1114.43,879.074 1108.23,867.264C1101.01,853.523 1102.67,821.03 1103.7,807.951C1105.18,789.085 1121.6,719.762 1128.76,707.037C1141.97,683.566 1166.72,625.845 1182.83,604.039C1188.51,596.354 1197.38,583.771 1203.38,576.132C1219.64,512.245 1284.24,492.829 1341.97,492.241C1404.73,491.603 1465.41,503.682 1527.82,507.106C1568.65,509.346 1622.61,504.931 1657.26,531.068C1704.38,566.599 1712.59,683.458 1713.43,737.941C1713.72,756.868 1703.61,773.099 1704.08,792.008L1701.8,826.353C1701.74,828.266 1699.48,845.024 1703.8,843.345C1706.8,842.18 1717.16,828.645 1718.74,826.2C1723.83,818.361 1732.85,812.394 1743.96,812.311C1765.07,812.153 1786.92,839.074 1791.01,856.117C1793.39,866.01 1792.99,877.483 1796.42,887.012C1804.77,910.213 1797.32,951.049 1790.34,973.144C1787.51,982.124 1783.24,995.352 1779.6,1004.03C1770.02,1026.8 1746.74,1045.24 1723.22,1055.29C1716.2,1058.29 1709.18,1060.04 1702.15,1056.29C1699.34,1054.79 1692.09,1047.95 1689.22,1048.57C1688.36,1048.75 1687.4,1054.85 1687.22,1055.57C1685.3,1063.4 1683.47,1071.19 1680.84,1078.85C1670.79,1108.12 1652.37,1134.92 1636.39,1161.29C1613.76,1198.62 1584.55,1230.68 1558.56,1265.49C1531.09,1302.27 1502.53,1344.98 1462.15,1368.71C1445.24,1378.65 1427.53,1381.54 1408.7,1385.98C1391.2,1390.11 1375.18,1389.48 1357.13,1390.69C1325.69,1392.79 1284.85,1378.42 1260.72,1360.25C1246.36,1349.44 1231.54,1338.13 1222.95,1321.98L1203.38,1300.06C1187.95,1283.35 1180.64,1259.36 1171.92,1238.78C1149.2,1185.13 1126.39,1128.01 1142.49,1068.94C1147.91,1049.05 1163.22,1040.52 1173.23,1024.16C1176.25,1019.23 1177.21,1011.75 1177.85,1003.97C1197.16,1004.99 1219.54,1004.92 1227.06,1003.84C1237.77,1002.31 1293.72,985.804 1298.05,972.811C1299.01,969.936 1285.8,947.373 1284.62,940.316C1282.83,929.535 1285.23,899.747 1283.88,897.95C1276.11,887.584 1259.9,887.257 1247.24,884.091C1241.52,882.66 1228.36,882.137 1213.88,882.242ZM1454.06,890.113C1454.05,889.343 1433.45,976.367 1436.29,977.879C1441.1,980.446 1524.67,1009.39 1543.65,1007.28C1550.84,1006.48 1602.42,994.054 1610.75,988.497C1618.73,983.178 1630.89,919.779 1626.68,911.356C1623.32,904.643 1540.95,881.371 1529.68,879.762C1508.35,876.714 1474.16,882.071 1454.06,890.113Z" style="fill:rgb(246,195,148);"/>
        <path d="M971.298,887.767C954.126,915.053 969.951,967.283 982.583,996.454C983.737,999.119 995.746,1011.1 997.028,1011.76C1001,1013.81 1009.72,1009.2 1010.41,1008.34C1020.88,995.4 1012.5,977.811 1008.15,963.449C1005.4,954.392 1004.15,944.998 1001.45,935.956C997.261,921.945 979.428,899.693 971.298,887.767Z" style="fill:rgb(246,195,148);"/>
        <path d="M1382.18,493.38C1430.89,496.395 1478.82,504.418 1527.82,507.106C1568.65,509.346 1622.61,504.931 1657.26,531.068C1704.38,566.599 1712.59,683.458 1713.43,737.941C1713.72,756.868 1703.61,773.099 1704.08,792.008L1701.8,826.353C1701.74,828.266 1699.48,845.024 1703.8,843.345C1706.8,842.18 1682.75,901.18 1693.54,903.832C1731.92,913.266 1758.41,828.282 1769.71,822.023C1776.4,818.313 1795.25,865.111 1796.42,887.012C1797.88,914.42 1802.23,953.165 1790.34,973.144C1785.53,981.237 1783.24,995.352 1779.6,1004.03C1770.02,1026.8 1746.74,1045.24 1723.22,1055.29C1716.2,1058.29 1709.18,1060.04 1702.15,1056.29C1699.34,1054.79 1692.09,1047.95 1689.22,1048.57C1688.36,1048.75 1687.4,1054.85 1687.22,1055.57C1685.3,1063.4 1683.47,1071.19 1680.84,1078.85C1670.79,1108.12 1652.37,1134.92 1636.39,1161.29C1613.76,1198.62 1584.55,1230.68 1558.56,1265.49C1531.09,1302.27 1502.53,1344.98 1462.15,1368.71C1445.24,1378.65 1427.53,1381.54 1408.7,1385.98C1394.6,1389.31 1381.45,1389.55 1367.43,1390.14C1397.77,1374.12 1451.98,1334.75 1471.78,1310C1514.36,1256.77 1541.97,1193.13 1569.03,1129.73C1580.04,1103.91 1589.04,1074.6 1571.11,1050.57C1562.27,1038.72 1545.29,1035.17 1550.02,1018.07C1552.92,1007.57 1606.83,1007.03 1615.94,992.355C1622.72,981.432 1629.03,953.486 1627.02,926.973C1627.76,919.393 1627.77,913.535 1626.68,911.356C1625.69,909.37 1617.78,905.936 1606.85,902.043C1606.8,901.891 1606.75,901.736 1606.7,901.577C1600.57,880.416 1599.58,834.326 1576.75,822.334C1560.57,813.839 1526.62,811.834 1508.96,823.03C1503.13,826.728 1502.99,827.575 1500.15,833.346C1497.26,839.218 1492.01,845.761 1491.05,852.389C1489.93,860.109 1495.06,867.411 1495.24,874.254C1495.31,876.556 1468.96,884.233 1459.8,887.939C1459.49,888.064 1459.18,888.193 1458.88,888.325C1457.2,888.904 1455.59,889.501 1454.06,890.113C1454.06,890.054 1453.94,890.51 1453.71,891.402C1442.54,900.229 1445.41,916.461 1444.42,931.679C1439.51,953.987 1434.84,977.106 1436.29,977.879C1436.65,978.076 1437.48,978.426 1438.71,978.905C1439.07,981.325 1439.78,983.179 1440.96,984.178C1452.25,993.71 1501.39,992.505 1486.33,1018.57C1472.08,1043.22 1451.43,1042.02 1442.52,1047.73C1408.5,1069.53 1386.09,1105.38 1340.01,1086.09C1330.98,1082.31 1320.9,1072.46 1314.53,1064.72C1282.47,1025.83 1355.17,1017.75 1384.02,1020.68C1390.73,1021.36 1411.19,1028.68 1414.96,1021.49C1439.46,974.897 1370.98,884.602 1409.59,811.372C1459.68,716.39 1579.21,752.552 1606.81,778.338C1612.88,784.009 1600.41,708.483 1593.92,698.365C1584.83,684.202 1570.66,676.147 1558.2,665.389C1509.31,623.171 1459.99,582.532 1395.49,567.58C1382.85,538.851 1378.63,514.146 1382.18,493.38Z" style="fill:rgb(236,146,94);"/>
        <path d="M1265.62,1188.94C1298.9,1188.24 1308.03,1170.45 1335.83,1161.46C1350.25,1156.8 1351.31,1159.84 1366,1160.32C1376.18,1160.66 1392.07,1159 1401.56,1163.08C1422.65,1172.13 1441.62,1190.71 1473.87,1190.08C1460.34,1199.68 1449.72,1199.9 1439.31,1201.86C1419.73,1205.54 1404.47,1201.65 1369.77,1208.47C1357.01,1210.98 1332.74,1207.12 1311.64,1203.98C1296.38,1201.7 1274.59,1200.69 1265.62,1188.94Z" style="fill:rgb(236,146,94);"/>
        <path d="M1111.11,767.879C1159.93,739.877 1241.45,731.408 1280.71,737.238C1296.79,739.623 1313.21,751.886 1333.59,781.66C1351.12,807.268 1352.87,873.223 1329.02,876.273C1276.02,883.049 1294.44,856.494 1277.11,845.721C1261.58,836.064 1244.21,832.785 1230.54,827.228C1220.8,823.267 1210.96,821.542 1201.36,821.414C1191.88,814.529 1177.04,815.291 1155.41,827.76C1152.99,829.158 1149.66,832.393 1145.89,836.474C1129.85,845.155 1118.98,854.941 1117.43,858.002C1114.57,863.653 1111.19,865.99 1107.59,865.952C1101.11,851.553 1102.7,820.63 1103.7,807.951C1104.29,800.396 1107.28,784.746 1111.11,767.879Z" style="fill:rgb(236,146,94);"/>
        <path d="M1312.13,994.925C1304.99,999.484 1279.87,1008.75 1284.88,1026.76C1288.63,1040.26 1350.71,1009.67 1363.07,1010.16C1386.86,1011.11 1369.04,943.846 1366.55,917.197C1365.74,908.514 1353.63,870.959 1340.08,888.576C1335.3,894.792 1330.68,928.009 1328.59,934.788C1324.46,948.204 1324,987.357 1312.13,994.925Z" style="fill:white;"/>
        <g transform="matrix(1,0,0,1.15993,0,-140.935)">
            <path d="M1520.74,829.867C1480.23,838.143 1472.17,890.7 1526.87,879.849C1540.5,877.145 1556.06,873.639 1563.16,860.207C1576.12,835.719 1548.87,824.12 1520.74,829.867Z" style="fill:white;"/>
        </g>
        <g transform="matrix(1.03757,0,0,1.01929,-68.4235,-26.7938)">
            <path d="M1689.25,1021.12C1684.88,1098.84 1649.84,1160.49 1602.26,1216.04C1571.76,1251.63 1521.84,1319.66 1467.28,1363.03C1443.9,1381.61 1411.14,1380.79 1382.48,1380.79C1353.82,1380.79 1321.06,1381.61 1297.68,1363.03C1243.12,1319.66 1193.2,1251.63 1162.71,1216.04C1115.13,1160.49 1080.09,1098.84 1075.72,1021.12C1075.45,1016.46 1071.53,1012.89 1066.95,1013.16C1062.37,1013.42 1058.87,1017.42 1059.13,1022.08C1063.73,1103.78 1100.18,1168.76 1150.19,1227.15C1181.17,1263.32 1232.03,1332.3 1287.46,1376.35C1313.74,1397.24 1350.27,1397.69 1382.48,1397.69C1414.7,1397.69 1451.23,1397.24 1477.51,1376.35C1532.94,1332.3 1583.79,1263.32 1614.78,1227.15C1664.79,1168.76 1701.24,1103.78 1705.83,1022.08C1706.09,1017.42 1702.59,1013.42 1698.02,1013.16C1693.44,1012.89 1689.51,1016.46 1689.25,1021.12Z"/>
        </g>
        <path d="M1736.21,815.669C1784.84,823.441 1790.23,871.236 1789.07,912.155C1788.02,949 1788.26,982.723 1763.42,1012.51C1754.19,1023.58 1739.91,1040.39 1724.05,1048.64C1715.48,1053.09 1706.4,1054.95 1697.69,1049.96C1693.56,1047.6 1688.29,1049.04 1685.93,1053.17C1683.57,1057.29 1685.01,1062.56 1689.13,1064.92C1703.29,1073.02 1718.07,1071.16 1731.99,1063.93C1749.87,1054.64 1766.25,1036.02 1776.65,1023.55C1804.19,990.537 1805.13,953.48 1806.3,912.646C1807.7,863.397 1797.46,808.004 1738.92,798.65C1734.23,797.9 1729.81,801.103 1729.06,805.8C1728.31,810.496 1731.51,814.919 1736.21,815.669Z"/>
        <path d="M1726.34,1004.54C1726.72,1003.24 1727.38,1001.21 1728.01,999.875C1731.16,993.279 1735.04,986.499 1735.49,982.617C1736.3,975.647 1734.84,968.919 1733.19,962.219C1732.02,957.482 1730.66,952.773 1731.16,947.869C1732.04,939.263 1736.98,930.439 1742.57,921.972C1748.97,912.275 1756.4,903.106 1761.49,895.363C1764.11,891.39 1763,886.042 1759.03,883.427C1755.06,880.813 1749.71,881.916 1747.1,885.889C1740.92,895.27 1731.38,906.736 1724.28,918.697C1718.91,927.736 1714.94,937.09 1714.02,946.114C1713.31,953.012 1714.81,959.688 1716.45,966.351C1717.62,971.052 1718.93,975.738 1718.37,980.63C1718.21,981.974 1716.95,983.784 1715.81,985.938C1713.87,989.61 1711.69,993.673 1710.35,997.464C1708.17,1003.62 1708.27,1009.35 1710.76,1013.65C1713.15,1017.77 1718.11,1021.76 1728.51,1022.14C1733.26,1022.31 1737.26,1018.59 1737.44,1013.84C1737.61,1009.09 1733.89,1005.09 1729.14,1004.91C1728.21,1004.88 1727.15,1004.71 1726.34,1004.54Z"/>
        <g transform="matrix(1,0,0,1,0,-11)">
            <path d="M1323.56,1047.12C1339.22,1037.75 1347.75,1034.43 1366,1034.43C1383.8,1034.43 1392.78,1037.75 1408.44,1047.12C1412.52,1049.56 1417.82,1048.22 1420.26,1044.14C1422.7,1040.06 1421.37,1034.77 1417.29,1032.33C1398.38,1021.02 1387.49,1017.19 1366,1017.19C1343.97,1017.19 1333.62,1021.02 1314.71,1032.33C1310.63,1034.77 1309.3,1040.06 1311.74,1044.14C1314.18,1048.22 1319.48,1049.56 1323.56,1047.12Z"/>
        </g>
        <path d="M1241.91,1187.07C1264.1,1209.22 1295.71,1210.19 1324.59,1212.92C1337.42,1214.13 1353.11,1218.43 1366,1218.43C1378.82,1218.43 1394.58,1214.13 1407.41,1212.92C1436.29,1210.19 1467.9,1209.22 1490.09,1187.07C1493.45,1183.71 1493.46,1178.25 1490.1,1174.89C1486.74,1171.52 1481.28,1171.52 1477.91,1174.88C1458.68,1194.07 1430.82,1193.4 1405.79,1195.76C1393.45,1196.93 1378.32,1201.19 1366,1201.19C1353.61,1201.19 1338.55,1196.93 1326.21,1195.76C1301.18,1193.4 1273.32,1194.07 1254.09,1174.88C1250.72,1171.52 1245.26,1171.52 1241.9,1174.89C1238.54,1178.25 1238.55,1183.71 1241.91,1187.07Z"/>
        <path d="M1386.7,1147.29C1378.6,1150.51 1374.9,1152.56 1366,1152.56C1357.1,1152.56 1353.4,1150.51 1345.3,1147.29C1340.88,1145.54 1335.86,1147.7 1334.11,1152.12C1332.35,1156.54 1334.51,1161.55 1338.93,1163.31C1349.49,1167.51 1354.4,1169.8 1366,1169.8C1377.6,1169.8 1382.51,1167.51 1393.07,1163.31C1397.49,1161.55 1399.65,1156.54 1397.89,1152.12C1396.14,1147.7 1391.12,1145.54 1386.7,1147.29Z"/>
        <path d="M1280.8,1060.89C1285.25,1060.85 1290.19,1059.39 1294.55,1060.72C1300.13,1062.42 1304.45,1066.29 1308.66,1070.35C1314.21,1075.7 1319.5,1081.48 1325.62,1085.69C1337.76,1094.04 1351.41,1100.61 1366,1100.61C1380.59,1100.61 1394.24,1094.04 1406.38,1085.69C1412.5,1081.48 1417.79,1075.7 1423.34,1070.35C1427.55,1066.29 1431.87,1062.42 1437.45,1060.72C1441.81,1059.39 1446.75,1060.85 1451.2,1060.89C1455.96,1060.94 1459.86,1057.11 1459.9,1052.36C1459.95,1047.6 1456.13,1043.7 1451.37,1043.65C1445.23,1043.6 1438.44,1042.4 1432.43,1044.23C1424.23,1046.73 1417.57,1051.97 1411.37,1057.94C1406.51,1062.63 1401.98,1067.8 1396.62,1071.49C1387.35,1077.86 1377.13,1083.37 1366,1083.37C1354.87,1083.37 1344.65,1077.86 1335.38,1071.49C1330.03,1067.8 1325.49,1062.63 1320.63,1057.94C1314.43,1051.97 1307.78,1046.73 1299.57,1044.23C1293.56,1042.4 1286.77,1043.6 1280.63,1043.65C1275.87,1043.7 1272.05,1047.6 1272.1,1052.36C1272.14,1057.11 1276.04,1060.94 1280.8,1060.89Z"/>
        <path d="M1422.44,983.549C1420.79,965.658 1416.85,947.764 1411.71,930.557C1407.38,916.049 1400.79,903.196 1401.91,887.645C1402.26,882.902 1398.69,878.771 1393.94,878.427C1389.2,878.083 1385.07,881.655 1384.73,886.398C1383.44,904.132 1390.26,918.944 1395.19,935.487C1400.01,951.611 1403.73,968.371 1405.28,985.136C1405.72,989.871 1409.92,993.361 1414.65,992.923C1419.39,992.485 1422.88,988.284 1422.44,983.549Z"/>
        <path d="M1387,1245.17C1378.76,1247.31 1374.48,1248.53 1366,1248.53C1357.52,1248.53 1353.24,1247.31 1345,1245.17C1340.4,1243.98 1335.69,1246.75 1334.5,1251.36C1333.31,1255.96 1336.08,1260.67 1340.68,1261.86C1350.61,1264.43 1355.79,1265.76 1366,1265.76C1376.21,1265.76 1381.39,1264.43 1391.32,1261.86C1395.92,1260.67 1398.69,1255.96 1397.5,1251.36C1396.31,1246.75 1391.6,1243.98 1387,1245.17Z"/>
        <g transform="matrix(-1,0,0,1,2732,0)">
            <path d="M1752.32,812.905C1773.5,816.769 1787.66,829.972 1796.21,848.937C1804.02,866.263 1806.98,888.674 1806.3,912.646C1805.13,953.48 1804.19,990.537 1776.65,1023.55C1766.25,1036.02 1749.87,1054.64 1731.99,1063.93C1718.07,1071.16 1703.29,1073.02 1689.13,1064.92C1685.01,1062.56 1683.57,1057.29 1685.93,1053.17C1688.29,1049.04 1693.56,1047.6 1697.69,1049.96C1706.4,1054.95 1715.48,1053.09 1724.05,1048.64C1739.91,1040.39 1754.19,1023.58 1763.42,1012.51C1788.26,982.723 1788.02,949 1789.07,912.155C1789.67,891.049 1787.37,871.271 1780.5,856.017C1774.36,842.401 1764.43,832.634 1749.23,829.86C1744.55,829.006 1741.44,824.514 1742.29,819.836C1743.15,815.157 1747.64,812.051 1752.32,812.905Z"/>
        </g>
        <g transform="matrix(-1,0,0,1,2732,0)">
            <path d="M1726.41,1004.56C1727.21,1004.72 1728.24,1004.88 1729.14,1004.91C1733.89,1005.09 1737.61,1009.09 1737.44,1013.84C1737.26,1018.59 1733.26,1022.31 1728.51,1022.14C1718.11,1021.76 1713.15,1017.77 1710.76,1013.65C1708.27,1009.35 1708.17,1003.62 1710.35,997.464C1711.69,993.673 1713.87,989.61 1715.81,985.938C1716.95,983.784 1718.21,981.974 1718.37,980.63C1718.93,975.738 1717.62,971.052 1716.45,966.351C1714.81,959.688 1713.31,953.012 1714.02,946.114C1714.94,937.09 1718.91,927.736 1724.28,918.697C1731.38,906.736 1740.92,895.27 1747.1,885.889C1749.71,881.916 1755.06,880.813 1759.03,883.427C1763,886.042 1764.11,891.39 1761.49,895.363C1756.4,903.106 1748.97,912.275 1742.57,921.972C1736.98,930.439 1732.04,939.263 1731.16,947.869C1730.66,952.773 1732.02,957.482 1733.19,962.219C1734.84,968.919 1736.3,975.647 1735.49,982.617C1735.12,985.786 1732.75,990.766 1729.97,996.016C1728.69,998.454 1727.15,1002.53 1726.41,1004.56Z"/>
        </g>
        <g transform="matrix(-1,0,0,1,2732,0)">
            <path d="M1405.28,985.136C1403.73,968.371 1400.01,951.611 1395.19,935.487C1390.26,918.944 1383.44,904.132 1384.73,886.398C1385.07,881.655 1389.2,878.083 1393.94,878.427C1398.69,878.771 1402.26,882.902 1401.91,887.645C1400.79,903.196 1407.38,916.049 1411.71,930.557C1416.85,947.764 1420.79,965.658 1422.44,983.549C1422.88,988.284 1419.39,992.485 1414.65,992.923C1409.92,993.361 1405.72,989.871 1405.28,985.136Z"/>
        </g>
        <path d="M1485.99,841.699C1495.34,836.229 1505.4,831.97 1515.93,829.362C1559.6,818.546 1596.47,841.909 1620.81,876.737C1623.53,880.635 1628.91,881.588 1632.81,878.864C1636.7,876.14 1637.66,870.763 1634.93,866.864C1606.47,826.141 1562.85,799.986 1511.79,812.632C1499.66,815.637 1488.06,820.521 1477.29,826.822C1473.18,829.223 1471.8,834.505 1474.2,838.611C1476.6,842.716 1481.88,844.1 1485.99,841.699Z"/>
        <path d="M1443.74,888.805C1437.63,906.238 1433.97,924.797 1436.36,943.233C1429.88,948.709 1424.84,957.441 1425.98,968.384C1427.01,978.332 1430.76,984.866 1435.4,989.132C1442.58,995.742 1452.43,997.128 1460.82,995.653C1465.51,994.831 1468.64,990.36 1467.82,985.675C1467,980.991 1462.53,977.856 1457.84,978.678C1454.32,979.297 1450.08,979.22 1447.07,976.45C1444.91,974.462 1443.6,971.231 1443.12,966.596C1442.52,960.882 1446.2,956.735 1449.8,954.806L1455.44,951.79L1454.19,945.524C1450.75,928.289 1454.29,910.833 1460.01,894.501C1461.58,890.012 1459.21,885.092 1454.72,883.52C1450.23,881.948 1445.31,884.316 1443.74,888.805Z"/>
        <path d="M1617.38,908.476C1621.3,934.447 1618.03,964.5 1599.89,984.756C1596.72,988.299 1597.02,993.752 1600.56,996.925C1604.1,1000.1 1609.55,999.796 1612.73,996.253C1634.26,972.205 1639.07,936.742 1634.43,905.909C1633.72,901.206 1629.33,897.963 1624.62,898.672C1619.92,899.38 1616.67,903.773 1617.38,908.476Z"/>
        <path d="M1459.8,995.981C1468.63,998.767 1481.92,1006.01 1492.59,1009.27C1533.82,1021.87 1579.76,1018.06 1616.14,994.622C1616.84,995.105 1617.51,995.601 1618.14,996.115C1620.72,998.212 1622.5,1000.69 1621.46,1004.64C1620.24,1009.24 1622.99,1013.96 1627.59,1015.18C1632.19,1016.39 1636.91,1013.64 1638.12,1009.04C1642.32,993.151 1633.13,984.407 1620.29,976.909C1617.37,975.202 1613.72,975.364 1610.96,977.323C1578.23,1000.55 1535.64,1004.41 1497.62,992.791C1486.75,989.467 1473.15,982.01 1464.31,979.335C1455.64,976.711 1444.51,982.768 1441.19,993.889C1439.83,998.446 1442.42,1003.25 1446.98,1004.61C1451.54,1005.97 1456.34,1003.38 1457.7,998.823C1457.99,997.88 1458.48,997.054 1459.12,996.453C1459.3,996.287 1459.61,996.091 1459.8,995.981Z"/>
        <path d="M1433.11,877.248C1434.89,881.341 1437.16,885.314 1439.93,888.827C1443.27,893.063 1446.59,895.297 1449.97,896.448C1453.44,897.631 1457.13,897.71 1461.46,896.747C1473.1,894.162 1492.64,881.166 1544.04,888.135C1568.26,891.419 1579.6,899.161 1601.36,909.063C1607.72,911.954 1616.12,915.193 1623.56,915.001C1630.33,914.828 1636.52,912.304 1641.07,905.9C1643.83,902.033 1642.92,896.659 1639.06,893.907C1635.19,891.154 1629.81,892.059 1627.06,895.926C1625.63,897.934 1623.4,897.968 1621.22,897.705C1616.78,897.17 1612.17,895.085 1608.49,893.408C1584.94,882.695 1572.56,874.643 1546.35,871.09C1498.45,864.596 1475.98,873.941 1462.57,878.504C1460.83,879.094 1459.29,879.599 1457.88,879.924C1456.99,880.128 1456.24,880.378 1455.53,880.173C1454.74,879.945 1454.21,879.167 1453.44,878.183C1451.58,875.821 1450.08,873.134 1448.88,870.382C1446.99,866.03 1441.91,864.036 1437.56,865.93C1433.21,867.825 1431.22,872.897 1433.11,877.248Z"/>
        <g transform="matrix(-1,0,0,1,2732,0)">
            <path d="M1477.29,826.822C1488.06,820.521 1499.66,815.637 1511.79,812.632C1562.85,799.986 1606.47,826.141 1634.93,866.864C1637.66,870.763 1636.7,876.14 1632.81,878.864C1628.91,881.588 1623.53,880.635 1620.81,876.737C1596.47,841.909 1559.6,818.546 1515.93,829.362C1505.4,831.97 1495.34,836.229 1485.99,841.699C1481.88,844.1 1476.6,842.716 1474.2,838.611C1471.8,834.505 1473.18,829.223 1477.29,826.822Z"/>
        </g>
        <g transform="matrix(-1,0,0,1,2732,0)">
            <path d="M1460.01,894.501C1454.29,910.833 1450.75,928.289 1454.19,945.524L1455.44,951.79L1449.8,954.806C1446.2,956.735 1442.52,960.882 1443.12,966.596C1443.6,971.231 1444.91,974.462 1447.07,976.45C1450.08,979.22 1454.32,979.297 1457.84,978.678C1462.53,977.856 1467,980.991 1467.82,985.675C1468.64,990.36 1465.51,994.831 1460.82,995.653C1452.43,997.128 1442.58,995.742 1435.4,989.132C1430.76,984.866 1427.01,978.332 1425.98,968.384C1424.84,957.441 1429.88,948.709 1436.36,943.232C1433.97,924.797 1437.63,906.238 1443.74,888.805C1445.31,884.316 1450.23,881.948 1454.72,883.52C1459.21,885.092 1461.58,890.012 1460.01,894.501Z"/>
        </g>
        <g transform="matrix(-1,0,0,1,2732,0)">
            <path d="M1634.43,905.909C1639.07,936.742 1634.26,972.205 1612.73,996.253C1609.55,999.796 1604.1,1000.1 1600.56,996.925C1597.02,993.752 1596.72,988.299 1599.89,984.756C1618.03,964.5 1621.3,934.447 1617.38,908.476C1616.67,903.773 1619.92,899.38 1624.62,898.672C1629.33,897.963 1633.72,901.206 1634.43,905.909Z"/>
        </g>
        <g transform="matrix(-1,0,0,1,2732,0)">
            <path d="M1459.8,995.981C1459.61,996.091 1459.3,996.287 1459.12,996.453C1458.48,997.054 1457.99,997.88 1457.7,998.823C1456.34,1003.38 1451.54,1005.97 1446.98,1004.61C1442.42,1003.25 1439.83,998.446 1441.19,993.889C1444.51,982.768 1455.64,976.711 1464.31,979.335C1473.15,982.01 1486.75,989.467 1497.62,992.791C1535.64,1004.41 1578.23,1000.55 1610.96,977.323C1613.72,975.364 1617.37,975.202 1620.29,976.909C1633.13,984.407 1642.32,993.151 1638.12,1009.04C1636.91,1013.64 1632.19,1016.39 1627.59,1015.18C1622.99,1013.96 1620.24,1009.24 1621.46,1004.64C1622.5,1000.69 1620.72,998.212 1618.14,996.115C1617.51,995.601 1616.84,995.105 1616.14,994.622C1579.76,1018.06 1533.82,1021.87 1492.59,1009.27C1481.92,1006.01 1468.63,998.767 1459.8,995.981Z"/>
        </g>
        <g transform="matrix(-1,0,0,1,2732,0)">
            <path d="M1448.9,870.375C1450.09,873.126 1451.59,875.811 1453.45,878.172C1454.23,879.152 1454.75,879.93 1455.54,880.157C1456.25,880.36 1456.99,880.111 1457.87,879.908C1459.29,879.582 1460.83,879.078 1462.56,878.487C1475.97,873.924 1498.45,864.578 1546.36,871.073C1572.56,874.627 1584.95,882.678 1608.49,893.392C1612.18,895.069 1616.78,897.153 1621.22,897.688C1623.4,897.95 1625.62,897.918 1627.05,895.916C1629.81,892.041 1635.19,891.135 1639.07,893.892C1642.94,896.65 1643.85,902.035 1641.09,905.91C1636.53,912.319 1630.34,914.845 1623.56,915.019C1616.11,915.21 1607.71,911.971 1601.36,909.079C1579.6,899.178 1568.26,891.435 1544.04,888.152C1492.65,881.184 1473.1,894.179 1461.47,896.764C1457.13,897.727 1453.44,897.649 1449.96,896.464C1446.58,895.312 1443.26,893.077 1439.92,888.838C1437.15,885.324 1434.88,881.35 1433.09,877.255C1431.2,872.895 1433.19,867.813 1437.56,865.914C1441.92,864.016 1447,866.015 1448.9,870.375Z"/>
        </g>
        <g transform="matrix(-1,0,0,1,2731.92,-8.53107)">
            <path d="M1091.8,770.762C1139.26,722.38 1217.61,703.538 1279.57,735.35C1293.2,742.344 1298.58,759.081 1291.58,772.703C1284.59,786.324 1267.85,791.706 1254.23,784.712C1213.59,763.848 1162.54,777.889 1131.41,809.621C1120.68,820.551 1103.1,820.72 1092.17,809.996C1081.24,799.273 1081.08,781.693 1091.8,770.762Z"/>
        </g>
        <g transform="matrix(1,0,0,1,0.0831424,-8.53107)">
            <path d="M1131.41,809.621C1162.54,777.889 1213.59,763.848 1254.23,784.712C1267.85,791.706 1284.59,786.324 1291.58,772.703C1298.58,759.081 1293.2,742.344 1279.57,735.35C1217.61,703.538 1139.26,722.38 1091.8,770.762C1081.08,781.693 1081.24,799.273 1092.17,809.996C1103.1,820.72 1120.68,820.551 1131.41,809.621Z"/>
        </g>
        <path d="M1013.36,875.928C992.513,769.06 986.5,654.581 1026.45,551.354C1036.22,526.094 1049.36,502.439 1067.21,481.982C1068.4,480.624 1074.25,474.968 1078.56,470.175C1082.33,465.996 1089.89,461.59 1089.89,461.59C1089.89,461.59 1089.32,466.564 1089.8,470.906C1090.53,477.475 1092.03,484.603 1093.81,487.229C1094.54,488.293 1098.11,492.03 1098.11,492.03C1098.11,492.03 1102.96,488.127 1108.88,482.436C1116.97,474.661 1131.36,456.224 1152.59,435.406C1184.24,404.376 1212.61,382.888 1244.73,363.569C1267.68,349.766 1296,338.123 1296,338.123C1296,338.123 1292.03,359.133 1293.45,365.149C1294.55,369.804 1297.52,375.182 1297.52,375.182C1297.52,375.182 1325.95,359.295 1329.32,357.101C1337.19,351.955 1356.6,336.236 1376.29,328.972C1397.18,321.265 1418.18,322.154 1418.18,322.154C1418.18,322.154 1418.03,325.847 1418.01,326.099C1417.16,336.19 1413.75,345.694 1410.15,355.077C1410.01,355.435 1409.01,358.034 1409.01,358.034C1409.01,358.034 1424.04,350.506 1425.88,349.542C1444.62,339.757 1463.81,330.264 1483.98,323.806C1561.52,298.979 1648.09,323.825 1687.27,235.204C1687.33,235.076 1691.18,236.301 1691.44,236.383C1702.09,239.654 1712.78,245.179 1720.09,253.791C1728.31,285.801 1742.12,344.045 1738.21,376.894C1737.51,382.793 1726.2,422.97 1726.86,424.651C1732.3,438.619 1754.5,416.983 1765.22,436.4C1774.88,453.901 1781.07,493.466 1779.04,512.566C1774.82,552.136 1780.28,585.502 1772.16,624.429C1762.84,669.162 1756.05,714.327 1744.63,758.57C1740.86,773.182 1735.39,787.752 1730.38,801.98C1728.56,807.14 1724.55,818.114 1722.49,823.185C1721.57,825.455 1702.14,849.04 1701.87,846.606C1697.38,806.739 1721.72,713.364 1689.62,710.515C1673.88,709.118 1691.93,667.385 1677.11,640.743C1655.1,601.186 1645.17,551.309 1628.08,579.422C1604.49,618.218 1558.91,629.884 1563.92,578.263C1564.97,567.408 1543.47,571.062 1532.43,581.561C1509.32,603.542 1485.08,564.247 1487.69,553.766C1491.08,540.2 1464.34,560.235 1457.21,544.371C1450.12,528.587 1388.34,565.405 1372.72,557.254C1365.49,553.48 1359.53,549.435 1354.84,545.306C1352.34,543.11 1335.1,533.073 1330.01,535.937C1297.17,554.41 1286.23,562.924 1271.34,554.017C1261.41,548.076 1254.26,561.927 1246.44,565.185C1230,572.043 1216.33,577.392 1207.77,571.326C1196.81,563.553 1214.71,547.17 1208.8,543.334C1198.81,536.853 1179.2,552.093 1168.54,559.082C1151.76,570.087 1146.46,566.042 1116.24,588.531C1104.55,597.239 1100.51,610.709 1090.97,623.061C1082.06,634.595 1073.77,672.964 1066.6,686.722C1060.85,697.748 1048.01,670.555 1042.9,681.527C1022.4,725.582 1018.4,832.792 1013.36,875.928Z" style="fill:rgb(119,90,68);"/>
        <path d="M1687.35,235.198C1687.9,235.26 1691.2,236.308 1691.44,236.383C1702.09,239.654 1712.78,245.179 1720.09,253.791C1728.31,285.801 1742.12,344.045 1738.21,376.894C1737.51,382.793 1726.2,422.97 1726.86,424.651C1728.39,428.579 1731.24,429.691 1734.8,429.693L1735.09,429.69C1739.68,429.614 1745.39,427.802 1750.88,427.812L1751.24,427.815C1756.5,427.902 1761.54,429.726 1765.22,436.4C1774.88,453.901 1781.07,493.466 1779.04,512.566C1774.82,552.136 1780.28,585.502 1772.16,624.429C1762.84,669.162 1756.05,714.327 1744.63,758.57C1740.86,773.182 1735.39,787.752 1730.38,801.98C1728.56,807.14 1724.55,818.114 1722.49,823.185C1721.62,825.33 1704.21,846.523 1702.08,846.779L1702.05,846.781C1701.95,846.786 1701.88,846.729 1701.87,846.606C1697.38,806.739 1721.72,713.364 1689.62,710.515C1673.88,709.118 1691.93,667.385 1677.11,640.743C1659.65,609.374 1649.8,571.516 1637.94,571.206L1637.77,571.204C1634.72,571.219 1631.55,573.712 1628.08,579.422C1615.73,599.727 1597.36,612.601 1583.37,612.858L1583.06,612.862C1570.49,612.924 1561.55,602.664 1563.92,578.263C1564.36,573.768 1560.92,571.761 1555.97,571.698L1555.69,571.696C1548.69,571.71 1538.81,575.492 1532.43,581.561C1527.65,586.111 1522.82,588.035 1518.18,588.133L1517.92,588.137C1500.29,588.249 1485.63,562.036 1487.69,553.766C1488.65,549.951 1487.21,548.793 1484.51,548.747L1484.28,548.746C1480.5,548.766 1474.41,550.766 1468.81,550.847L1468.46,550.85C1463.79,550.85 1459.5,549.452 1457.21,544.371C1455.56,540.687 1451.28,523.099 1451.38,523.343C1447.27,515.994 1535.54,444.942 1584.47,410.177C1602.97,397.032 1637.06,361.649 1647.04,343.542C1662.72,315.089 1682.43,275.005 1687.35,235.198Z" style="fill:rgb(95,63,48);"/>
        <path d="M1358.09,271.622C1359.73,266.435 1361.62,261.331 1362.96,256.504L1365.49,247.41L1356.2,245.721C1292.12,234.062 1223.62,262.979 1178.14,308.216C1178.13,307.881 1178.13,307.544 1178.13,307.207C1178.14,301.385 1179.31,295.384 1179.93,289.747L1181.43,276.279L1168.6,280.636C1071.61,313.566 1005.5,412.443 988.743,510.776C983.537,506.892 978.194,503.057 973.807,499.436L964.591,491.829L960.283,502.975C948.612,533.177 945.147,567.208 942.243,599.162C937.797,648.09 939.095,699.371 949.209,747.567C957.422,786.7 972.474,823.723 988.567,860.166C996.799,878.807 1009.15,904.23 1018.82,922.194L1034.91,916.694C1023.99,851.165 1023.96,757.265 1054.12,694.591C1056.58,697.984 1058.86,701.244 1059.98,703.688L1071.22,728.177L1076.27,701.708C1083.16,665.647 1094.87,623.255 1123.24,598.009C1134.69,587.826 1150.39,580.987 1165.8,573.909C1176.12,569.169 1186.32,564.324 1195.36,558.649C1194.68,562.958 1193.67,567.019 1192.17,570.139L1187.21,580.462L1198.51,582.367C1221.3,586.212 1246.02,581.803 1264.71,568.11L1262,577.077L1276.27,574.028C1295.6,569.896 1316.88,559.545 1331.79,545.843C1345.79,549.617 1359.55,560.388 1369.15,570.503L1372.44,573.962L1377.11,573.015C1390.34,570.334 1404.58,568.33 1417.84,564.343C1428.2,561.227 1437.97,556.914 1446.44,550.443C1446.79,551.431 1447.09,552.386 1447.32,553.28L1449.19,560.362L1456.48,559.663C1462.41,559.094 1470.19,558.689 1477.22,557.706C1477.94,563.717 1477.95,570.242 1478.69,575.638L1479.34,580.27L1483.57,582.256C1493.64,586.977 1502.88,594.592 1510.4,602.773L1515.49,608.293L1521.65,604.02C1530.97,597.566 1543.34,589.608 1554.92,585.11C1558.02,593.934 1559.09,606.127 1559.28,613.601L1559.57,624.775L1570.3,621.651C1594.15,614.71 1621.71,606.703 1639.3,588.016C1652.86,605.086 1659.92,624.427 1665.13,645.985C1669.19,662.767 1673.99,679.682 1675.23,696.981C1675.93,706.752 1675.52,716.389 1675.43,726.143L1675.21,748.041L1690.29,732.162C1692.37,729.978 1694.51,727.815 1696.67,725.654C1696.23,742.533 1694.3,759.476 1693.4,776.248C1691.53,811.371 1689.9,847.844 1683.17,882.487L1675.18,923.627L1698.76,888.978C1759.79,799.286 1784.56,636.924 1789.32,579.203C1793.73,525.782 1790.62,471.157 1770.24,420.567L1766.92,412.333L1758.79,415.893C1753.5,418.206 1747.83,421.348 1741.78,423.334L1741.78,423.334C1773.1,338.601 1741.63,225.321 1665.55,173.079L1657.93,167.847L1653.25,175.814C1638.63,200.667 1615.12,207.111 1588.33,211.929C1561.28,216.793 1533.95,221.011 1507.08,226.751C1490.9,230.205 1474.2,234.047 1459.97,242.724C1460.01,242.178 1460.07,241.629 1460.12,241.084C1460.76,235.284 1462.62,229.495 1463.22,225.07L1464.77,213.59L1453.33,215.403C1418.34,220.948 1381.72,242.961 1358.09,271.622ZM1720.28,430.048L1714.94,441.311L1727.36,442.328C1738.08,443.205 1748.22,439.409 1757.44,435.364C1773.91,481.071 1776.09,529.949 1772.14,577.786C1768.13,626.462 1749.84,751.734 1706.36,841.067C1708.43,819.731 1709.49,798.214 1710.62,777.169C1711.91,752.967 1715.18,728.415 1713.51,704.186L1712.1,683.701L1698.47,699.061C1696.65,701.11 1694.76,703.123 1692.82,705.116C1692.77,702.001 1692.65,698.88 1692.42,695.746C1691.11,677.5 1686.17,659.635 1681.89,641.933C1675.16,614.127 1665.37,589.765 1645.26,568.626L1637.79,560.776L1631.82,569.822C1619.54,588.442 1596.8,596.044 1575.7,602.165C1574.41,590.939 1571.57,577.597 1566.69,569.936L1563.31,564.625L1557.22,566.236C1544.43,569.62 1529.75,577.979 1517.88,585.773C1511.12,579.252 1503.45,573.334 1495.28,568.877C1494.57,561.052 1494.37,552.039 1492.16,545.008L1489.62,536.938L1481.5,539.326C1475.98,540.953 1468.37,541.504 1461.64,541.977C1460.28,538.511 1458.68,534.987 1457.39,532.168L1451.81,520.042L1443.05,530.118C1435.01,539.376 1424.32,544.397 1412.87,547.838C1401.64,551.216 1389.67,553.071 1378.28,555.226C1365.51,542.785 1347.77,530.82 1330.51,527.944L1326.06,527.202L1322.92,530.439C1312.52,541.138 1297.4,549.681 1282.52,554.515C1281.61,551.338 1280.19,548.287 1278.47,545.563L1272.05,535.414L1264.49,544.745C1251.63,560.619 1231.17,567.251 1211.27,566.411C1213.15,557.618 1213.87,547.481 1214.1,540.198L1214.8,518.354L1199.38,533.845C1188.95,544.325 1173.84,551.252 1158.61,558.248C1141.6,566.061 1124.42,573.892 1111.79,585.133C1085.74,608.31 1071.85,644.366 1063.59,678.699C1062.53,677.099 1061.64,675.622 1061.06,674.362L1054.19,659.381L1045.81,673.578C1015.23,725.408 1007.91,803.822 1012.33,870.695C1009.43,864.527 1006.71,858.578 1004.33,853.204C988.725,817.859 974.041,781.981 966.076,744.027C956.31,697.488 955.114,647.967 959.407,600.722C961.822,574.141 964.487,546.019 972.543,520.167C978.404,524.487 984.543,528.937 989.283,533.287L1001.68,544.666L1003.67,527.953C1014.64,435.468 1072.61,338.815 1161.14,301.871C1160.99,303.647 1160.9,305.42 1160.9,307.178C1160.88,315.228 1162.62,322.96 1167.92,329.739L1174.32,337.922L1181.18,330.124C1220.3,285.662 1283.14,254.509 1343.4,261.254C1341.81,266.023 1340.16,270.929 1339.06,275.818C1336.76,285.939 1336.73,295.977 1341.72,305.12L1349.79,319.918L1357.06,304.709C1372.42,272.553 1407.89,245.013 1443.65,235.125C1443.14,237.911 1442.75,240.777 1442.72,243.582C1442.66,250.472 1444.47,257.022 1449.55,262.364L1455.26,268.366L1461.48,262.9C1475.19,250.857 1493.41,247.292 1510.68,243.605C1537.37,237.904 1564.52,233.722 1591.38,228.891C1620.31,223.69 1645.44,215.868 1662.88,192.446C1731.37,245.33 1756.4,353.823 1720.28,430.048Z"/>
        <g transform="matrix(1,0,0,1,0,7.18655)">
            <path d="M1521.85,892.563C1525.69,891.452 1529.75,890.856 1533.95,890.856C1557.97,890.856 1577.46,910.353 1577.46,934.368C1577.46,958.382 1557.97,977.879 1533.95,977.879C1509.94,977.879 1490.44,958.382 1490.44,934.368C1490.44,930.17 1491.04,926.11 1492.15,922.27C1495.56,930.542 1503.7,936.37 1513.2,936.37C1525.76,936.37 1535.95,926.173 1535.95,913.613C1535.95,904.118 1530.12,895.973 1521.85,892.563Z"/>
        </g>
    </g>
</svg>
